<mxfile host="www.draw.io" modified="2020-02-13T15:21:03.015Z" agent="Mozilla/5.0 (Macintosh; Intel Mac OS X 10_14_6) AppleWebKit/537.36 (KHTML, like Gecko) Chrome/77.0.3865.90 Safari/537.36" etag="WSaZhBPxnjWGoX9tHqd_" version="12.7.0" type="github">
  <diagram id="F8VpJ28K4jp9fLRufquV" name="Page-1">
    <mxGraphModel dx="1806" dy="1563" grid="1" gridSize="5" guides="1" tooltips="1" connect="1" arrows="1" fold="1" page="0" pageScale="1" pageWidth="1169" pageHeight="827" math="0" shadow="0">
      <root>
        <mxCell id="0"/>
        <mxCell id="tSeJXY5QkdyVhTGE8RgK-30" value="Border" parent="0"/>
        <mxCell id="M_QFQK3Uzq7nNJ9T8SE2-6" value="" style="rounded=0;whiteSpace=wrap;html=1;fillColor=#CCCCCC;strokeColor=none;" vertex="1" parent="tSeJXY5QkdyVhTGE8RgK-30">
          <mxGeometry x="-535" y="-345" width="1925" height="1905" as="geometry"/>
        </mxCell>
        <mxCell id="tSeJXY5QkdyVhTGE8RgK-31" value="" style="rounded=1;whiteSpace=wrap;html=1;strokeWidth=5;fillColor=#ffffff;strokeColor=#E6E6E6;shadow=1;glass=0;backgroundOutline=0;" parent="tSeJXY5QkdyVhTGE8RgK-30" vertex="1">
          <mxGeometry x="65" y="105" width="635" height="1055" as="geometry"/>
        </mxCell>
        <mxCell id="tSeJXY5QkdyVhTGE8RgK-28" value="Water" parent="0"/>
        <mxCell id="tSeJXY5QkdyVhTGE8RgK-26" value="" style="endArrow=none;html=1;strokeColor=#29B3EF;strokeWidth=12;fillColor=#C6EAFA;jumpSize=12;" parent="tSeJXY5QkdyVhTGE8RgK-28" edge="1">
          <mxGeometry width="50" height="50" relative="1" as="geometry">
            <mxPoint x="320" y="680" as="sourcePoint"/>
            <mxPoint x="640" y="675" as="targetPoint"/>
            <Array as="points">
              <mxPoint x="380" y="615"/>
              <mxPoint x="580" y="615"/>
            </Array>
          </mxGeometry>
        </mxCell>
        <mxCell id="tSeJXY5QkdyVhTGE8RgK-25" value="" style="endArrow=none;html=1;strokeColor=#29B3EF;strokeWidth=12;fillColor=#C6EAFA;jumpSize=12;shadow=0;" parent="tSeJXY5QkdyVhTGE8RgK-28" edge="1">
          <mxGeometry width="50" height="50" relative="1" as="geometry">
            <mxPoint x="41" y="680" as="sourcePoint"/>
            <mxPoint x="921" y="560" as="targetPoint"/>
            <Array as="points">
              <mxPoint x="341" y="680"/>
              <mxPoint x="421" y="755"/>
              <mxPoint x="566" y="755"/>
              <mxPoint x="746" y="560"/>
            </Array>
          </mxGeometry>
        </mxCell>
        <mxCell id="tSeJXY5QkdyVhTGE8RgK-24" value="" style="endArrow=none;html=1;strokeColor=#C6EAFA;strokeWidth=10;fillColor=#C6EAFA;jumpSize=12;" parent="tSeJXY5QkdyVhTGE8RgK-28" edge="1">
          <mxGeometry width="50" height="50" relative="1" as="geometry">
            <mxPoint x="320" y="680" as="sourcePoint"/>
            <mxPoint x="640" y="675" as="targetPoint"/>
            <Array as="points">
              <mxPoint x="380" y="615"/>
              <mxPoint x="580" y="615"/>
            </Array>
          </mxGeometry>
        </mxCell>
        <mxCell id="tSeJXY5QkdyVhTGE8RgK-23" value="" style="endArrow=none;html=1;strokeColor=#C6EAFA;strokeWidth=10;fillColor=#C6EAFA;jumpSize=12;shadow=0;" parent="tSeJXY5QkdyVhTGE8RgK-28" edge="1">
          <mxGeometry width="50" height="50" relative="1" as="geometry">
            <mxPoint x="41" y="680" as="sourcePoint"/>
            <mxPoint x="921" y="560" as="targetPoint"/>
            <Array as="points">
              <mxPoint x="341" y="680"/>
              <mxPoint x="421" y="755"/>
              <mxPoint x="566" y="755"/>
              <mxPoint x="746" y="560"/>
            </Array>
          </mxGeometry>
        </mxCell>
        <mxCell id="1" value="Lines" parent="0"/>
        <mxCell id="DB9aXXIR0IWll7c-367i-10" value="" style="endArrow=none;html=1;strokeWidth=10;fillColor=#fff2cc;fontFamily=Lucida Console;fontSize=10;fontColor=#3333FF;strokeColor=#F49200;" parent="1" edge="1">
          <mxGeometry width="100" relative="1" as="geometry">
            <mxPoint x="40" y="480" as="sourcePoint"/>
            <mxPoint x="920" y="480" as="targetPoint"/>
          </mxGeometry>
        </mxCell>
        <mxCell id="DB9aXXIR0IWll7c-367i-11" value="" style="endArrow=none;html=1;strokeWidth=10;fillColor=#0050ef;fontFamily=Lucida Console;fontSize=10;fontColor=#3333FF;strokeColor=#EE9EC1;" parent="1" edge="1">
          <mxGeometry width="100" relative="1" as="geometry">
            <mxPoint x="40" y="650" as="sourcePoint"/>
            <mxPoint x="560" y="650" as="targetPoint"/>
          </mxGeometry>
        </mxCell>
        <mxCell id="tSeJXY5QkdyVhTGE8RgK-1" value="" style="endArrow=none;html=1;strokeWidth=10;fillColor=#d5e8d4;fontFamily=Lucida Console;fontSize=10;fontColor=#3333FF;strokeColor=#C19375;" parent="1" edge="1">
          <mxGeometry width="100" relative="1" as="geometry">
            <mxPoint x="420" y="480" as="sourcePoint"/>
            <mxPoint x="800" y="240" as="targetPoint"/>
            <Array as="points">
              <mxPoint x="420" y="540"/>
              <mxPoint x="500" y="540"/>
              <mxPoint x="680" y="360"/>
            </Array>
          </mxGeometry>
        </mxCell>
        <mxCell id="tSeJXY5QkdyVhTGE8RgK-3" value="" style="endArrow=none;html=1;strokeWidth=10;fillColor=#0050ef;fontFamily=Lucida Console;fontSize=10;fontColor=#3333FF;strokeColor=#2397DB;" parent="1" edge="1">
          <mxGeometry width="100" relative="1" as="geometry">
            <mxPoint x="40" y="640" as="sourcePoint"/>
            <mxPoint x="560" y="640" as="targetPoint"/>
          </mxGeometry>
        </mxCell>
        <mxCell id="DB9aXXIR0IWll7c-367i-13" value="" style="endArrow=none;html=1;strokeWidth=10;fillColor=#d80073;fontFamily=Lucida Console;fontSize=10;fontColor=#3333FF;strokeColor=#ED693C;" parent="1" edge="1">
          <mxGeometry width="100" relative="1" as="geometry">
            <mxPoint x="280" y="1205" as="sourcePoint"/>
            <mxPoint x="120" y="40" as="targetPoint"/>
            <Array as="points">
              <mxPoint x="280" y="880"/>
              <mxPoint x="120" y="880"/>
              <mxPoint x="120" y="800"/>
              <mxPoint x="400" y="800"/>
              <mxPoint x="400" y="320"/>
            </Array>
          </mxGeometry>
        </mxCell>
        <mxCell id="tSeJXY5QkdyVhTGE8RgK-2" value="" style="endArrow=none;html=1;strokeWidth=10;fillColor=#d5e8d4;fontFamily=Lucida Console;fontSize=10;fontColor=#3333FF;strokeColor=#A6C71F;" parent="1" edge="1">
          <mxGeometry width="100" relative="1" as="geometry">
            <mxPoint x="410" y="480" as="sourcePoint"/>
            <mxPoint x="920" y="500" as="targetPoint"/>
            <Array as="points">
              <mxPoint x="410" y="720"/>
              <mxPoint x="630" y="720"/>
              <mxPoint x="830" y="500"/>
            </Array>
          </mxGeometry>
        </mxCell>
        <mxCell id="tSeJXY5QkdyVhTGE8RgK-29" value="Stations" parent="0"/>
        <mxCell id="tSeJXY5QkdyVhTGE8RgK-16" value="" style="ellipse;whiteSpace=wrap;html=1;aspect=fixed;strokeWidth=5;allowArrows=0;connectable=0;" parent="tSeJXY5QkdyVhTGE8RgK-29" vertex="1">
          <mxGeometry x="395" y="465" width="30" height="30" as="geometry"/>
        </mxCell>
        <mxCell id="tSeJXY5QkdyVhTGE8RgK-13" value="" style="ellipse;whiteSpace=wrap;html=1;aspect=fixed;strokeWidth=5;allowArrows=0;connectable=0;" parent="tSeJXY5QkdyVhTGE8RgK-29" vertex="1">
          <mxGeometry x="390" y="630" width="30" height="30" as="geometry"/>
        </mxCell>
        <mxCell id="M_QFQK3Uzq7nNJ9T8SE2-1" value="Text" parent="0"/>
        <mxCell id="M_QFQK3Uzq7nNJ9T8SE2-3" value="&lt;ul&gt;&lt;li&gt;S11:&amp;nbsp;F49200&lt;br&gt;&lt;/li&gt;&lt;li&gt;3:&amp;nbsp; &amp;nbsp;&amp;nbsp;EE9EC1&lt;/li&gt;&lt;li&gt;15:&amp;nbsp; &amp;nbsp;2397DB&lt;/li&gt;&lt;li&gt;154:&amp;nbsp;ED693C&lt;/li&gt;&lt;li&gt;435: C19375&lt;/li&gt;&lt;li&gt;436:&amp;nbsp;A6C71F&lt;/li&gt;&lt;li&gt;Wasser:&amp;nbsp;C6EAFA /&amp;nbsp;29B3EF&amp;nbsp;&lt;/li&gt;&lt;/ul&gt;" style="text;html=1;strokeColor=none;fillColor=none;align=left;verticalAlign=middle;whiteSpace=wrap;rounded=0;" vertex="1" parent="M_QFQK3Uzq7nNJ9T8SE2-1">
          <mxGeometry x="730" y="875" width="235" height="185" as="geometry"/>
        </mxCell>
      </root>
    </mxGraphModel>
  </diagram>
</mxfile>
